<?xml version="1.0" encoding="UTF-8"?>
<svg version="1.1" xmlns="http://www.w3.org/2000/svg" width="512" height="512">
<path d="M0 0 C1.06716279 0.51686276 2.13432558 1.03372553 3.23382664 1.5662508 C30.55594734 14.84373383 57.70946713 28.4716239 84.89514828 42.02530956 C96.27451355 47.69830631 107.65908287 53.36058093 119.05054373 59.00925177 C127.12042701 63.01199406 135.18412282 67.02702547 143.24340731 71.05106431 C148.03486916 73.44303207 152.82885351 75.82956912 157.62968254 78.20268822 C162.13251072 80.42878368 166.62744499 82.6700785 171.11693764 84.92294121 C172.75638013 85.74236231 174.39853459 86.55638533 176.04366302 87.36433029 C190.83258463 94.63428126 203.1988032 103.25531717 209.65795898 119.0065918 C210.51870018 121.08802051 211.48877157 123.08172684 212.51733398 125.0847168 C214.24016602 124.94163086 214.24016602 124.94163086 215.99780273 124.7956543 C238.26183613 123.12837797 257.61584555 127.85641471 274.88452148 142.6159668 C289.57510223 156.39111076 297.333045 174.24428971 297.98828125 194.23681641 C298.1931441 214.31854069 292.80411442 232.31812951 278.71728516 247.00830078 C264.2524116 261.48802788 247.62529342 269.20783449 227.01733398 269.5222168 C216.24611428 269.50359758 205.99706332 267.36876037 195.51733398 265.0847168 C192.22780491 264.30771481 192.22780491 264.30771481 189.51733398 264.0847168 C187.22518353 265.87662712 187.22518353 265.87662712 185.51733398 268.0847168 C182.53942481 269.57367139 179.49476781 269.24072668 176.22875977 269.24584961 C175.47721115 269.25081451 174.72566254 269.25577942 173.95133972 269.26089478 C171.45509938 269.27554219 168.95892282 269.28232658 166.46264648 269.2878418 C164.72305297 269.29359603 162.98345946 269.29935373 161.24386597 269.30511475 C157.58697209 269.31563539 153.93010024 269.32146948 150.27319336 269.32495117 C145.61541544 269.33040442 140.95793453 269.35435927 136.3002491 269.38292313 C132.70027867 269.40167661 129.10037752 269.40676206 125.5003624 269.40828705 C123.78537263 269.41129116 122.07038342 269.41924278 120.35544205 269.43247223 C98.91047513 269.5859419 84.81049364 264.11533294 69.51733398 249.0847168 C68.4596582 248.05024414 68.4596582 248.05024414 67.38061523 246.99487305 C65.74404099 245.37249901 64.12740134 243.733323 62.51733398 242.0847168 C61.53941546 241.10430358 60.56036155 240.12502067 59.57983398 239.1472168 C58.89920898 238.4665918 58.21858398 237.7859668 57.51733398 237.0847168 C57.25049805 237.66866211 56.98366211 238.25260742 56.70874023 238.85424805 C54.61417842 242.77554246 51.51942334 245.83580173 48.51733398 249.0847168 C47.8328418 249.83495117 47.14834961 250.58518555 46.44311523 251.3581543 C37.90467283 260.34114756 28.68734315 266.80344247 16.02328491 267.41749573 C4.06614479 267.63431769 -6.74643824 266.03142293 -18.31860352 263.17456055 C-20.05614733 262.76338473 -21.79416795 262.35421934 -23.53262329 261.94691467 C-28.06639553 260.87921201 -32.59341896 259.78531564 -37.11938477 258.68505859 C-41.63388064 257.59225757 -46.15414213 256.52391522 -50.67407227 255.45385742 C-57.66625747 253.79581876 -64.65521273 252.12487549 -71.6418457 250.44360352 C-80.78052883 248.24566556 -89.92935876 246.09304436 -99.08422852 243.96362305 C-100.35495209 243.66801987 -101.62567566 243.37241669 -102.93490601 243.06785583 C-105.78395211 242.40591052 -108.63317368 241.74473807 -111.48266602 241.0847168 C-111.19536621 242.03660889 -110.90806641 242.98850098 -110.61206055 243.96923828 C-110.24193848 245.22293213 -109.87181641 246.47662598 -109.49047852 247.76831055 C-109.12067871 249.00895264 -108.75087891 250.24959473 -108.36987305 251.52783203 C-107.30905299 255.78074545 -106.52858705 260.02313944 -108.48266602 264.0847168 C-112.30260885 267.93082861 -114.60500776 269.64803212 -120.24224854 269.75379944 C-121.29711456 269.73391212 -121.29711456 269.73391212 -122.37329102 269.71362305 C-123.11794617 269.716035 -123.86260132 269.71844696 -124.62982178 269.72093201 C-126.19980205 269.71995665 -127.76981804 269.70663715 -129.33959961 269.68164062 C-131.71273079 269.64750356 -134.08209359 269.66095107 -136.45532227 269.68041992 C-146.20863852 269.67022683 -153.76183705 268.59522548 -162.23266602 263.3972168 C-168.77547246 256.67266573 -172.70478057 249.3645932 -172.77319336 239.87084961 C-172.78595306 238.66229309 -172.79871277 237.45373657 -172.81185913 236.20855713 C-172.81408478 234.91472107 -172.81631042 233.62088501 -172.81860352 232.2878418 C-172.82504114 230.93031681 -172.8317702 229.57279317 -172.83877563 228.215271 C-172.85071986 225.37419422 -172.85445957 222.53323876 -172.85327148 219.69213867 C-172.85306879 216.07661547 -172.88033149 212.46188263 -172.9148159 208.84654617 C-172.93721278 206.04270966 -172.94110511 203.23905927 -172.94005203 200.43514252 C-172.94351674 198.46225645 -172.96510199 196.48942848 -172.9871521 194.5166626 C-172.93145445 183.46300461 -170.32823649 174.17329166 -162.48266602 166.0847168 C-155.1483507 160.06201261 -148.02856472 157.79501374 -138.52783203 157.76586914 C-137.385131 157.7508007 -137.385131 157.7508007 -136.21934509 157.73542786 C-133.7250945 157.70477102 -131.23095036 157.68760993 -128.73657227 157.6706543 C-126.99778844 157.65192853 -125.25901357 157.63235408 -123.52024841 157.61196899 C-118.96161188 157.56079055 -114.40294593 157.52108865 -109.84417725 157.48382568 C-105.18518889 157.44369615 -100.52632139 157.39264476 -95.86743164 157.3425293 C-86.73926151 157.24593933 -77.61102291 157.16148071 -68.48266602 157.0847168 C-70.37642362 154.55418896 -72.27125325 152.02446572 -74.16625977 149.49487305 C-74.6961853 148.78673462 -75.22611084 148.07859619 -75.77209473 147.34899902 C-78.99615805 143.04653785 -82.25221007 138.77217819 -85.54516602 134.5222168 C-86.76575229 132.93270733 -87.98631558 131.34317806 -89.2043457 129.75170898 C-90.09018245 128.59653456 -90.97906648 127.44369298 -91.87036133 126.29272461 C-103.62798548 111.05670313 -112.63390678 94.79069218 -113.48266602 75.0847168 C-113.52262695 74.33448242 -113.56258789 73.58424805 -113.60375977 72.8112793 C-114.25012163 49.31412436 -104.93113419 28.462191 -89.10766602 11.5456543 C-79.9725729 2.80120661 -68.5968902 -3.37964173 -56.48266602 -6.9152832 C-55.39405273 -7.25172852 -55.39405273 -7.25172852 -54.28344727 -7.5949707 C-35.56859401 -12.36350225 -16.91319953 -8.25910289 0 0 Z M172.76733398 169.3347168 C165.46615602 176.93683937 160.89281175 185.85885061 158.51733398 196.0847168 C159.13479492 196.41342773 159.75225586 196.74213867 160.38842773 197.08081055 C173.50124848 204.44554548 182.58792043 215.3153464 186.91186523 229.85424805 C187.51733398 232.0847168 187.51733398 232.0847168 188.15405273 235.6706543 C189.19971326 239.34215198 189.19971326 239.34215198 192.64233398 240.79174805 C193.92463801 241.1916027 195.21746663 241.55879073 196.51733398 241.8972168 C197.1928833 242.09532959 197.86843262 242.29344238 198.56445312 242.49755859 C200.54103438 243.06354001 202.52357362 243.58303756 204.51733398 244.0847168 C205.96946289 244.4559668 205.96946289 244.4559668 207.45092773 244.8347168 C212.75221868 246.02564643 216.85346044 246.0847168 222.51733398 246.0847168 C222.51733398 213.4147168 222.51733398 180.7447168 222.51733398 147.0847168 C203.67056672 147.0847168 186.18458401 156.84201677 172.76733398 169.3347168 Z M-148.48266602 184.0847168 C-150.22913357 187.60437525 -150.73455392 190.45626932 -150.74145508 194.36230469 C-150.7477594 195.39009537 -150.75406372 196.41788605 -150.76055908 197.4768219 C-150.75651062 198.57590378 -150.75246216 199.67498566 -150.74829102 200.80737305 C-150.75020447 201.94500595 -150.75211792 203.08263885 -150.75408936 204.25474548 C-150.75544859 206.6561607 -150.75177041 209.05758333 -150.7434082 211.45898438 C-150.73269539 215.13713036 -150.74331771 218.81478901 -150.75610352 222.49291992 C-150.75478207 224.82690538 -150.75221998 227.16089053 -150.74829102 229.49487305 C-150.75233948 230.59597916 -150.75638794 231.69708527 -150.76055908 232.83155823 C-150.75425476 233.85619675 -150.74795044 234.88083527 -150.74145508 235.93652344 C-150.73986389 236.83633438 -150.73827271 237.73614532 -150.7366333 238.66322327 C-150.46362128 241.26630199 -149.86268115 242.87409146 -148.48266602 245.0847168 C-145.42348042 247.1995451 -142.890178 247.30596711 -139.23266602 247.2097168 C-138.34063477 247.19166992 -137.44860352 247.17362305 -136.52954102 247.1550293 C-135.85407227 247.13182617 -135.17860352 247.10862305 -134.48266602 247.0847168 C-134.5174707 246.46725586 -134.55227539 245.84979492 -134.58813477 245.21362305 C-134.8284189 237.69616227 -133.6848619 231.75504327 -129.79516602 225.2722168 C-123.32380229 219.15065651 -117.67877628 218.92072682 -108.48266602 218.0847168 C-108.48266602 205.5447168 -108.48266602 193.0047168 -108.48266602 180.0847168 C-116.71204102 179.9609668 -116.71204102 179.9609668 -125.10766602 179.8347168 C-126.82808105 179.79830078 -128.54849609 179.76188477 -130.32104492 179.72436523 C-131.7004268 179.71267154 -133.07982259 179.70248132 -134.45922852 179.6940918 C-135.16265381 179.67362793 -135.8660791 179.65316406 -136.59082031 179.63208008 C-141.6990586 179.62849912 -144.63862306 180.73217905 -148.48266602 184.0847168 Z " fill="#35CF1B" transform="translate(193.482666015625,221.915283203125)"/>
<path d="M0 0 C2.46134339 1.15027605 4.84835253 2.3915575 7.23828125 3.68359375 C9.02205047 4.61214236 10.8059056 5.54052597 12.58984375 6.46875 C13.46543945 6.93168457 14.34103516 7.39461914 15.24316406 7.87158203 C18.67357913 9.67540303 22.14016058 11.40140633 25.61328125 13.12109375 C29.9304833 15.27017354 34.23792705 17.4363672 38.53125 19.6328125 C69.65536323 35.48660242 101.9683017 49.52390727 134.59375 61.9921875 C135.3977977 62.30024323 136.2018454 62.60829895 137.03025818 62.9256897 C140.83427395 64.37997265 144.6430486 65.81831057 148.46362305 67.22851562 C178.9372704 78.6390453 204.19342886 99.43789195 218.02734375 129.296875 C228.11385148 151.92743184 229.35763922 174.11254932 229.27558327 198.52846217 C229.26531058 202.55125744 229.27488511 206.57401994 229.28112793 210.59681702 C229.28835094 217.32983082 229.27894559 224.06266752 229.25976562 230.7956543 C229.23787377 238.57027211 229.24515814 246.34447225 229.26707125 254.11908048 C229.28522056 260.82867216 229.2877899 267.53813825 229.27731657 274.24774653 C229.27109603 278.24111552 229.27020886 282.23428777 229.28346252 286.22764397 C229.2950184 289.96840016 229.28700108 293.70861454 229.2638855 297.44931221 C229.2560857 299.4723041 229.26794704 301.49534192 229.28039551 303.51831055 C229.26911621 304.72474716 229.25783691 305.93118378 229.24621582 307.17417908 C229.24395367 308.74328238 229.24395367 308.74328238 229.24164581 310.34408474 C228.49980283 314.52886452 226.30699087 317.08549702 222.86328125 319.49609375 C219.92273648 320.44744647 217.82020986 320.55342518 214.73828125 320.18359375 C211.08045945 318.14365467 209.06881951 316.67940113 206.73828125 313.18359375 C206.48494816 310.65988731 206.48494816 310.65988731 206.47999573 307.58432007 C206.47316772 306.41836807 206.46633972 305.25241608 206.45930481 304.0511322 C206.46185776 302.77017166 206.46441071 301.48921112 206.46704102 300.16943359 C206.46265373 298.80742583 206.45735156 297.44542075 206.45120239 296.0834198 C206.43969115 293.14672581 206.43424206 290.21010409 206.433321 287.27338791 C206.43137736 282.61412789 206.41330205 277.95501608 206.39256287 273.29580688 C206.34338872 261.7100024 206.31262742 250.12415714 206.29125977 238.53826904 C206.27466022 229.55702062 206.25159256 220.57589831 206.20823902 211.59473383 C206.19017284 207.73042534 206.17782764 203.8662884 206.17953682 200.00193405 C206.19032613 165.99337288 201.46067019 137.28917046 177.48828125 111.49609375 C169.90448041 104.37084831 161.2751867 98.62928165 151.84375 94.2890625 C150.74423759 93.77789886 150.74423759 93.77789886 149.62251282 93.25640869 C142.42287909 89.95715012 135.07863004 87.08168308 127.67263794 84.28390503 C111.15743572 78.03381227 94.89790601 71.30612654 78.73828125 64.18359375 C77.03043457 63.43674316 77.03043457 63.43674316 75.28808594 62.67480469 C60.60187561 56.24471483 46.09384959 49.50424506 31.67578125 42.49609375 C30.92937378 42.13386719 30.18296631 41.77164063 29.41394043 41.3984375 C22.32468093 37.95427538 15.25618756 34.4878729 8.28515625 30.80859375 C7.35968994 30.32479248 6.43422363 29.84099121 5.48071289 29.3425293 C3.84263393 28.4792703 2.21319113 27.59929789 0.59545898 26.69848633 C-3.48483575 24.52367177 -3.48483575 24.52367177 -7.95654297 24.83007812 C-12.04328598 26.50365644 -15.94695256 28.43141892 -19.875 30.4453125 C-21.59824235 31.3185668 -23.32163747 32.19151968 -25.04516602 33.06420898 C-25.94631134 33.5220578 -26.84745667 33.97990662 -27.77590942 34.45162964 C-47.04572924 44.22639521 -66.46515996 53.52778521 -86.26171875 62.18359375 C-87.23289642 62.60907501 -87.23289642 62.60907501 -88.22369385 63.04315186 C-102.19216159 69.15563273 -116.24538558 75.02895651 -130.44140625 80.59375 C-131.4004184 80.97011597 -132.35943054 81.34648193 -133.34750366 81.73425293 C-138.06218763 83.58205386 -142.78092185 85.4182216 -147.50732422 87.23583984 C-174.93364509 97.85569705 -197.59249415 113.06507162 -209.98901367 140.64208984 C-216.70425697 156.28055006 -218.56875995 171.55286972 -218.5012207 188.43530273 C-218.50233637 190.02352488 -218.50439851 191.61174659 -218.50732422 193.19996643 C-218.51200983 196.59214536 -218.51096531 199.98425482 -218.50554848 203.37643242 C-218.49788374 208.74336029 -218.50865299 214.11015684 -218.52275085 219.47706604 C-218.56034309 234.72845054 -218.57864836 249.9797723 -218.56713867 265.23120117 C-218.56092334 273.67570283 -218.57248734 282.11998963 -218.60358399 290.5644384 C-218.62221963 295.8976714 -218.61894059 301.23029467 -218.59941638 306.56351745 C-218.59253387 309.87771871 -218.60649093 313.19158907 -218.62636566 316.50572777 C-218.63141042 318.03998185 -218.62793441 319.57429164 -218.61523247 321.10850143 C-218.51498641 334.14389073 -218.51498641 334.14389073 -221.6759491 338.08021545 C-225.25748809 340.99359615 -227.48484221 341.57700451 -232.15625 341.54296875 C-235.87765328 340.90777561 -237.66484724 338.84380359 -240.26171875 336.18359375 C-241.68556025 333.33591075 -241.39758171 330.92279982 -241.40888977 327.73770142 C-241.4144048 326.73337525 -241.4144048 326.73337525 -241.42003125 325.70875967 C-241.43108785 323.45378134 -241.43491552 321.19884907 -241.4387207 318.94384766 C-241.44498473 317.33070224 -241.45163147 315.71755827 -241.45863342 314.10441589 C-241.47971381 308.78967296 -241.4900513 303.47492966 -241.5 298.16015625 C-241.50404849 296.32617554 -241.50816544 294.49219498 -241.51235008 292.65821457 C-241.53142401 284.02657397 -241.54564071 275.39494196 -241.55396205 266.76328433 C-241.56369129 256.83657398 -241.58988766 246.9100892 -241.63046294 236.98345816 C-241.66080346 229.29314585 -241.67544846 221.60289741 -241.67874306 213.91252649 C-241.68107662 209.32984378 -241.68981037 204.74740133 -241.71520424 200.16478348 C-241.91135953 162.80819628 -241.91135953 162.80819628 -237.26171875 147.18359375 C-237.037848 146.42570683 -236.81397724 145.6678199 -236.58332253 144.88696671 C-229.27742193 120.64803428 -214.30739159 99.75453863 -194.07421875 84.55859375 C-193.24809082 83.92981323 -193.24809082 83.92981323 -192.40527344 83.28833008 C-181.12782639 75.107301 -168.44850868 69.81755754 -155.46539307 65.02832031 C-151.17064344 63.4403708 -146.89167147 61.81111103 -142.61328125 60.1796875 C-141.74335541 59.8480661 -140.87342957 59.5164447 -139.97714233 59.17477417 C-125.5460629 53.64129241 -111.38839147 47.44653011 -97.26171875 41.18359375 C-96.56389282 40.87421875 -95.86606689 40.56484375 -95.14709473 40.24609375 C-68.98472985 28.62711716 -42.94606473 16.58662423 -17.71875 3.0390625 C-16.57792969 2.42675781 -15.43710938 1.81445312 -14.26171875 1.18359375 C-13.27751953 0.55904297 -13.27751953 0.55904297 -12.2734375 -0.078125 C-8.07475355 -1.61900125 -4.14411209 -1.49588848 0 0 Z " fill="#58E52D" transform="translate(262.26171875,21.81640625)"/>
<path d="M0 0 C2.60822889 2.76165412 4.14046567 4.70601068 4.1015625 8.58984375 C3.98554688 9.44707031 3.86953125 10.30429688 3.75 11.1875 C2.24106354 25.19639162 2.82275288 37.37820347 11.37890625 49.15625 C18.40553858 57.58192099 27.19838212 63.23883883 38.125 65.25 C40.33170414 65.34449363 42.54127905 65.37989739 44.75 65.375 C45.99007812 65.37242187 47.23015625 65.36984375 48.5078125 65.3671875 C51.61920629 65.26638641 54.5520379 64.95767521 57.625 64.5 C61.33349868 64.06083568 62.06639109 64.22069555 65.625 66 C69.03817115 69.07185404 70.04921761 70.56795845 70.5625 75.1875 C70.20999329 88.78104007 60.22632809 101.97935441 50.78515625 110.96484375 C36.43026639 123.2961368 18.83818676 128.53227404 0.125 127.25 C-17.57250833 124.78237357 -33.35698611 117.17546761 -44.875 103.25 C-56.1169667 87.85521725 -60.53840223 70.63647062 -58.484375 51.63671875 C-55.45770367 33.26327161 -46.06039268 19.06222307 -31.375 7.8125 C-23.148809 2.14740433 -9.82296859 -5.97919827 0 0 Z " fill="#57E52D" transform="translate(260.875,86.75)"/>
</svg>
